<?xml version="1.0" encoding="UTF-8" standalone="no"?>
<svg
   xmlns:dc="http://purl.org/dc/elements/1.1/"
   xmlns:cc="http://creativecommons.org/ns#"
   xmlns:rdf="http://www.w3.org/1999/02/22-rdf-syntax-ns#"
   xmlns:svg="http://www.w3.org/2000/svg"
   xmlns="http://www.w3.org/2000/svg"
   xmlns:sodipodi="http://sodipodi.sourceforge.net/DTD/sodipodi-0.dtd"
   xmlns:inkscape="http://www.inkscape.org/namespaces/inkscape"
   viewBox="0 0 400 200"
   version="1.1"
   id="svg8"
   sodipodi:docname="socialMediaIcons.svg"
   inkscape:version="0.92.3 (2405546, 2018-03-11)"
   width="400"
   height="200"
   inkscape:export-filename="D:\Projects\hg\template-unity-project\Assets\Omiya Games\Sprites\Licensed Files\Social Media Icons.png"
   inkscape:export-xdpi="245.75999"
   inkscape:export-ydpi="245.75999">
  <metadata
     id="metadata14">
    <rdf:RDF>
      <cc:Work
         rdf:about="">
        <dc:format>image/svg+xml</dc:format>
        <dc:type
           rdf:resource="http://purl.org/dc/dcmitype/StillImage" />
        <dc:title></dc:title>
      </cc:Work>
    </rdf:RDF>
  </metadata>
  <defs
     id="defs12" />
  <sodipodi:namedview
     pagecolor="#ffffff"
     bordercolor="#666666"
     borderopacity="1"
     objecttolerance="10"
     gridtolerance="10"
     guidetolerance="10"
     inkscape:pageopacity="0"
     inkscape:pageshadow="2"
     inkscape:window-width="2748"
     inkscape:window-height="1755"
     id="namedview10"
     showgrid="false"
     inkscape:zoom="2.4583333"
     inkscape:cx="48"
     inkscape:cy="275.79661"
     inkscape:window-x="-13"
     inkscape:window-y="-13"
     inkscape:window-maximized="1"
     inkscape:current-layer="Layer_2-34"
     inkscape:pagecheckerboard="true"
     inkscape:snap-page="true" />
  <g
     data-name="Layer 2"
     id="Layer_2"
     transform="translate(0,104)">
    <g
       data-name="Layer 2"
       id="Layer_2-2"
       transform="translate(2,-2)"
       style="fill:#ffffff">
      <path
         d="M 48,0 A 48,48 0 1 0 96,48 48,48 0 0 0 48,0 Z m 3.1,26.63 a 10.83,10.83 0 0 1 7.35,-3.81 11.3,11.3 0 0 1 -2.61,8 v 0 a 9.25,9.25 0 0 1 -7.35,3.59 10.78,10.78 0 0 1 2.61,-7.78 z M 65.33,67.1 c -2.08,3 -4.22,6.14 -7.62,6.17 -3.4,0.03 -4.39,-2 -8.2,-2 -3.81,0 -5,1.95 -8.14,2.06 C 38.23,73.44 35.61,70 33.55,67 30,61.64 27,52.62 28.89,45.3 a 14.29,14.29 0 0 1 1.48,-3.81 12.33,12.33 0 0 1 10.28,-6.36 c 3.21,0 6.28,2.22 8.23,2.22 1.95,0 5.62,-2.72 9.46,-2.35 a 11.46,11.46 0 0 1 9.1,5 11.82,11.82 0 0 0 -4.14,4.52 10.74,10.74 0 0 0 -1.23,5.07 11.25,11.25 0 0 0 6.69,10.25 29.93,29.93 0 0 1 -3.43,7.26 z"
         id="path4"
         inkscape:connector-curvature="0"
         style="fill:#ffffff" />
    </g>
    <g
       data-name="Layer 2"
       id="Layer_2-6"
       transform="translate(132.10169,-65.457627)"
       style="fill:#ffffff">
      <g
         data-name="Layer 2"
         id="Layer_2-2-0"
         transform="translate(-30.101695,63.457627)"
         style="fill:#ffffff">
        <path
           inkscape:connector-curvature="0"
           d="M 48,0 A 48,48 0 1 0 96,48 48,48 0 0 0 48,0 Z M 34.16,27.78 57.31,40.64 51.47,46.18 31.53,27.26 a 3.21,3.21 0 0 1 2.63,0.52 z M 29.59,65.62 V 30.27 a 3,3 0 0 1 0.16,-1.15 L 49.57,48 29.75,66.74 a 2.94,2.94 0 0 1 -0.16,-1.12 z m 4.58,2.52 a 3.26,3.26 0 0 1 -2.69,0.47 l 19.93,-18.87 6,5.68 z m 31.61,-17.38 -6,3.29 -6.45,-6.05 6.36,-6 6.17,3.43 c 1.78,0.97 2.88,3.68 -0.08,5.33 z"
           id="path1583"
           style="fill:#ffffff" />
      </g>
    </g>
    <g
       data-name="Layer 2"
       id="Layer_2-5"
       transform="translate(202,-2)"
       style="fill:#ffffff">
      <g
         data-name="Layer 2"
         id="Layer_2-2-2"
         style="fill:#ffffff">
        <polygon
           class="cls-1"
           points="43.18,54.76 43.18,39.95 49.37,43.33 56.86,47.38 "
           id="polygon2695"
           style="fill:#ffffff" />
        <polygon
           class="cls-1"
           points="43.18,54.76 43.18,39.95 49.37,43.33 56.86,47.38 "
           id="polygon2697"
           style="fill:#ffffff" />
        <polygon
           points="56.86,47.38 43.18,54.76 43.18,39.95 49.37,43.33 "
           id="polygon2699"
           style="fill:#ffffff" />
        <path
           inkscape:connector-curvature="0"
           d="M 48,0 A 48,48 0 1 0 96,48 48,48 0 0 0 48,0 Z m 25.69,49.93 a 84.26,84.26 0 0 1 -0.49,8.5 c 0,0 -0.52,3.65 -2,5.27 a 7.15,7.15 0 0 1 -5,2.25 c -7.08,0.49 -17.69,0.55 -17.69,0.55 0,0 -13.23,-0.14 -17.26,-0.5 -1.15,-0.22 -3.67,-0.14 -5.59,-2.25 -1.51,-1.62 -2,-5.27 -2,-5.27 a 79.47,79.47 0 0 1 -0.52,-8.5 v -4 a 81,81 0 0 1 0.52,-8.5 c 0,0 0.52,-3.64 2,-5.23 A 7.18,7.18 0 0 1 30.73,30 c 7.07,-0.52 17.65,-0.52 17.65,-0.52 h 0.06 c 0,0 10.61,0 17.69,0.52 a 7.24,7.24 0 0 1 5,2.25 c 1.51,1.59 2,5.23 2,5.23 0,0 0.49,4.28 0.49,8.5 z"
           id="path2701"
           style="fill:#ffffff" />
      </g>
    </g>
    <g
       data-name="Layer 2"
       id="Layer_2-3"
       transform="translate(302,-2)"
       style="fill:#ffffff">
      <g
         data-name="Layer 2"
         id="Layer_2-2-6"
         style="fill:#ffffff">
        <path
           inkscape:connector-curvature="0"
           d="M 48,0 A 48,48 0 1 0 96,48 48,48 0 0 0 48,0 Z m 10.87,43.93 -0.33,4 H 51.05 V 73.19 H 40.94 V 47.91 h -5.1 V 37.79 h 5 v -4.55 c 0,-4.17 1.95,-10.58 10.64,-10.58 h 7.81 v 8.66 h -5.63 a 2.13,2.13 0 0 0 -2.22,2.41 v 4.06 h 8 z"
           id="path3300"
           style="fill:#ffffff" />
      </g>
    </g>
    <g
       data-name="Layer 2"
       id="Layer_2-1"
       transform="translate(2,-102)"
       style="fill:#ffffff">
      <g
         data-name="Layer 2"
         id="Layer_2-2-4"
         style="fill:#ffffff">
        <path
           inkscape:connector-curvature="0"
           d="M 48,0 A 48,48 0 1 0 96,48 48,48 0 0 0 48,0 Z m 20.47,37.81 v 1.32 A 28.06,28.06 0 0 1 67.78,45.3 C 65.18,57 55.17,68.17 39,68.17 A 29.94,29.94 0 0 1 23.1,63.59 c 0.85,0.08 1.64,0.14 2.49,0.14 a 21,21 0 0 0 12.86,-4.36 10.46,10.46 0 0 1 -9.68,-7.13 9.26,9.26 0 0 0 1.95,0.22 10.19,10.19 0 0 0 2.74,-0.38 10.34,10.34 0 0 1 -7.62,-6.31 9.66,9.66 0 0 1 -0.71,-3.67 V 42 a 10,10 0 0 0 4.69,1.26 10.08,10.08 0 0 1 -3.22,-13.67 29.44,29.44 0 0 0 21.4,10.67 10.67,10.67 0 0 1 -0.3,-2.33 10.42,10.42 0 0 1 18,-7 21.13,21.13 0 0 0 6.61,-2.49 10.23,10.23 0 0 1 -4.58,5.68 22.1,22.1 0 0 0 5.95,-1.62 21.46,21.46 0 0 1 -5.21,5.31 z"
           id="path4048"
           style="fill:#ffffff" />
      </g>
    </g>
    <g
       data-name="Layer 2"
       id="Layer_2-0"
       transform="translate(102,-102)"
       style="fill:#ffffff">
      <g
         data-name="Layer 2"
         id="Layer_2-2-1"
         style="fill:#ffffff">
        <path
           inkscape:connector-curvature="0"
           d="M 60.69,26 H 34.51 a 8.81,8.81 0 0 0 -8.8,8.8 V 61 a 8.81,8.81 0 0 0 8.8,8.8 H 60.69 A 8.81,8.81 0 0 0 69.49,61 V 34.83 A 8.81,8.81 0 0 0 60.69,26 Z m -13.1,37.92 a 16,16 0 1 1 16,-16 16,16 0 0 1 -16,16 z m 15.71,-29 a 2.58,2.58 0 1 1 2.58,-2.58 2.57,2.57 0 0 1 -2.58,2.54 z"
           id="path4658"
           style="fill:#ffffff" />
        <path
           inkscape:connector-curvature="0"
           d="M 47.59,35.21 A 12.69,12.69 0 1 0 60.28,47.91 12.7,12.7 0 0 0 47.59,35.21 Z"
           id="path4660"
           style="fill:#ffffff" />
        <path
           inkscape:connector-curvature="0"
           d="M 48,0 A 48,48 0 1 0 96,48 48,48 0 0 0 48,0 Z M 72.43,61 A 11.77,11.77 0 0 1 60.69,72.75 H 34.51 A 11.78,11.78 0 0 1 22.77,61 V 34.83 A 11.77,11.77 0 0 1 34.51,23.09 h 26.18 a 11.75,11.75 0 0 1 11.74,11.74 z"
           id="path4662"
           style="fill:#ffffff" />
      </g>
    </g>
    <g
       data-name="Layer 2"
       id="Layer_2-34"
       transform="translate(302,-102)"
       style="fill:#ffffff">
      <g
         data-name="Layer 2"
         id="Layer_2-2-3"
         style="fill:#ffffff"
         transform="translate(-100)">
        <path
           inkscape:connector-curvature="0"
           d="M 48,0 A 48,48 0 1 0 96,48 48,48 0 0 0 48,0 Z m 25.71,61.86 a 3.05,3.05 0 0 1 -1.43,1 c -0.05,0 -0.05,0 -0.05,0.05 a 18.57,18.57 0 0 1 -3.62,1 H 68.5 a 1.31,1.31 0 0 0 -1,0.3 6.24,6.24 0 0 0 -0.85,2.25 v 0.06 c 0,0 0,0.05 0,0.13 0,0.08 -0.06,0.22 -0.16,0.36 a 0.86,0.86 0 0 1 -0.52,0.27 H 65.81 A 31.85,31.85 0 0 0 61.18,67 10.08,10.08 0 0 0 58.99,67.25 c -1.86,0.82 -3.51,2.14 -5.4,3.18 l -0.05,0.06 A 6.63,6.63 0 0 1 50.74,71.42 25.62,25.62 0 0 1 47.18,71.5 8.26,8.26 0 0 1 43,70 C 41.16,68.9 39.6,67.64 37.73,67.18 A 14.37,14.37 0 0 0 32.14,67.34 1.25,1.25 0 0 1 31.29,67.39 0.65,0.65 0 0 1 30.8,67 C 30.55,66.23 30.47,65.46 30.25,64.83 30.11,64.47 30.03,64.28 30,64.23 a 20.68,20.68 0 0 0 -2.22,-0.55 12.94,12.94 0 0 1 -3.54,-1.23 1.65,1.65 0 0 1 -0.6,-0.47 1.14,1.14 0 0 1 -0.22,-1 0.24,0.24 0 0 1 0.08,-0.16 2.26,2.26 0 0 1 1.37,-0.82 v 0 a 13,13 0 0 0 3.81,-1.73 15.82,15.82 0 0 0 5.21,-6 3.78,3.78 0 0 0 0.6,-2.61 A 2.37,2.37 0 0 0 33,48.15 19.91,19.91 0 0 1 29.57,46.67 V 46.61 A 2.25,2.25 0 0 1 29,46.2 1.55,1.55 0 0 1 28.45,45.3 v 0 a 0.16,0.16 0 0 1 0,-0.11 1.7,1.7 0 0 1 0.93,-1.37 v 0 0 A 1.8,1.8 0 0 1 31,43.44 v 0 c 0.63,0.17 1.12,0.38 1.65,0.47 v 0 a 6.43,6.43 0 0 0 2.17,0.05 c 0.06,-0.05 0.06,-0.05 0.06,-0.08 0.11,-1.45 -0.06,-2.94 -0.08,-4.44 a 15.39,15.39 0 0 1 0.66,-6.75 v 0 a 13.54,13.54 0 0 1 4.25,-5.51 14.29,14.29 0 0 1 8.66,-2.8 21.54,21.54 0 0 1 2.3,0.14 13,13 0 0 1 6.39,2.22 12.59,12.59 0 0 1 5.21,7.7 v 0.06 a 34.12,34.12 0 0 1 0.15,5.5 c 0,1.23 -0.08,2.39 -0.08,3.48 a 1.29,1.29 0 0 1 0.06,0.41 4.63,4.63 0 0 0 1.86,0.05 c 0,0 0,-0.05 0,-0.05 a 6.76,6.76 0 0 0 1.62,-0.47 2.47,2.47 0 0 1 1.86,0.17 2.44,2.44 0 0 1 1,1 1.26,1.26 0 0 1 0.08,0.82 1.14,1.14 0 0 0 -0.08,0.22 1.12,1.12 0 0 1 -0.47,0.58 8.59,8.59 0 0 1 -3.07,1.56 4.84,4.84 0 0 0 -2.2,1.51 v 0 a 1.9,1.9 0 0 0 -0.08,1.7 16.86,16.86 0 0 0 2.3,3.95 13.69,13.69 0 0 0 6.55,4.83 v 0 a 4.81,4.81 0 0 1 1.62,0.58 h 0.05 v 0.05 a 1,1 0 0 1 0.27,1.47 z"
           id="path6022"
           style="fill:#ffffff" />
      </g>
      <path
         style="fill:#ffffff;fill-opacity:0.96811595;stroke:none;stroke-width:37.79527664;stroke-miterlimit:4;stroke-dasharray:none;stroke-opacity:1"
         d="M 48,0 A 48,48 0 0 0 0,48 48,48 0 0 0 48,96 48,48 0 0 0 96,48 48,48 0 0 0 48,0 Z m 0,21 C 62.91271,21 75,33.0873 75,48 75,62.9127 62.91271,75 48,75 33.08729,75 21,62.9127 21,48 21,33.0873 33.08729,21 48,21 Z m -0.87109,3.5273 c -0.0314,0 -0.0585,0 -0.0898,0.01 -3.28529,2.7349 -5.96594,6.397 -7.7793,10.67 2.48226,0.8483 5.12211,1.3408 7.86914,1.4297 z m 1.74024,0 v 12.1055 c 2.74703,-0.087 5.38709,-0.5814 7.87109,-1.4297 -1.81336,-4.2729 -4.49596,-7.9351 -7.78125,-10.6699 -0.0296,0 -0.0567,0 -0.0898,-0.01 z m 2.99218,0.3008 c 2.69826,2.6965 4.92265,6.02 6.50782,9.7774 2.15477,-0.8971 4.14885,-2.0817 5.97265,-3.4805 -3.35845,-3.2505 -7.67272,-5.4973 -12.48047,-6.2969 z m -7.72265,0 c -4.80775,0.7996 -9.12376,3.0445 -12.48047,6.2949 1.8238,1.3988 3.81941,2.5834 5.9707,3.4805 1.5869,-3.7591 3.80977,-7.0806 6.50977,-9.7754 z m -13.67383,7.5528 c -3.52568,3.9559 -5.72847,9.0935 -5.9375,14.7461 h 10.44531 c 0.0958,-3.8584 0.78239,-7.5439 2,-10.918 -2.34987,-0.9807 -4.52549,-2.2865 -6.50781,-3.8281 z m 35.07031,0 c -1.98232,1.5416 -4.1562,2.8474 -6.50781,3.8281 1.21761,3.3741 1.90419,7.0596 2,10.918 H 71.47266 C 71.26363,41.4744 69.0591,36.3368 65.53516,32.3809 Z m -26.93359,4.4277 c -1.14794,3.186 -1.79265,6.6707 -1.88672,10.3184 H 47.12891 V 38.373 C 44.1502,38.282 41.28763,37.7405 38.60157,36.8086 Z m 18.79687,0 c -2.6878,0.9319 -5.55037,1.4719 -8.52734,1.5625 v 8.7539 0 h 10.41406 c -0.0958,-3.6476 -0.74053,-7.1324 -1.88672,-10.3184 z m 3.62891,12.0566 c -0.10974,4.4507 -1.03746,8.6534 -2.61914,12.4317 2.20877,0.8605 4.26535,2.01 6.16406,3.3652 4.08832,-4.0692 6.6722,-9.6356 6.90039,-15.7969 z m -36.5,0 c 0.22819,6.1595 2.81032,11.7241 6.90039,15.795 1.89871,-1.357 3.95508,-2.5028 6.16211,-3.3633 -1.57994,-3.7783 -2.50919,-7.981 -2.61719,-12.4317 z m 12.1875,0 c 0.10974,4.2416 0.99929,8.2421 2.50781,11.834 2.50316,-0.8065 5.15922,-1.2562 7.90625,-1.3398 V 48.8652 Z m 12.15625,0 v 10.4942 c 2.74529,0.084 5.40135,0.5333 7.90625,1.3398 1.50677,-3.5919 2.39807,-7.5924 2.50781,-11.834 z m -1.74219,12.2364 c -2.49619,0.08 -4.91121,0.4711 -7.19141,1.1836 1.77678,3.6354 4.20452,6.7649 7.09961,9.1757 0.0314,0 0.0604,0 0.0918,0 z m 1.74219,0 v 10.3632 c 0.0314,0 0.0622,0 0.0918,0 2.89509,-2.4108 5.32109,-5.5403 7.0996,-9.1757 -2.28019,-0.7125 -4.69695,-1.1035 -7.1914,-1.1836 z m -10.58008,1.7832 c -1.98232,0.7647 -3.83888,1.7731 -5.55469,2.9629 3.18078,2.7243 7.09454,4.6004 11.40235,5.3164 -2.34117,-2.3325 -4.32869,-5.1299 -5.84766,-8.2793 z m 19.41797,0 c -1.52071,3.1494 -3.5065,5.9468 -5.84766,8.2793 4.30781,-0.716 8.22157,-2.5938 11.40235,-5.3164 -1.71929,-1.188 -3.57411,-2.1982 -5.55469,-2.9629 z"
         id="path828"
         inkscape:connector-curvature="0" />
    </g>
  </g>
</svg>
